<mxfile host="Electron" modified="2024-05-01T13:39:18.006Z" agent="Mozilla/5.0 (Windows NT 10.0; Win64; x64) AppleWebKit/537.36 (KHTML, like Gecko) draw.io/21.2.8 Chrome/112.0.5615.165 Electron/24.2.0 Safari/537.36" etag="W6rv37UPSSctOtOAnz8F" version="21.2.8" type="device">
  <diagram name="Page-1" id="ac0-5Axkzdwwxx8cRdzC">
    <mxGraphModel dx="2012" dy="772" grid="1" gridSize="10" guides="1" tooltips="1" connect="1" arrows="1" fold="1" page="1" pageScale="1" pageWidth="827" pageHeight="1169" math="0" shadow="0">
      <root>
        <mxCell id="0" />
        <mxCell id="1" parent="0" />
        <mxCell id="ugWdAH9gTy0CYIlYv7zM-1" value="&lt;font face=&quot;Verdana&quot; style=&quot;font-size: 16px;&quot;&gt;&lt;b&gt;0&lt;/b&gt;&lt;/font&gt;" style="rounded=0;whiteSpace=wrap;html=1;fillColor=#e1d5e7;strokeColor=#0d0c0d;" parent="1" vertex="1">
          <mxGeometry x="-720" y="240" width="40" height="30" as="geometry" />
        </mxCell>
        <mxCell id="ugWdAH9gTy0CYIlYv7zM-2" value="&lt;font face=&quot;Verdana&quot; style=&quot;font-size: 16px;&quot;&gt;&lt;b&gt;3&lt;/b&gt;&lt;/font&gt;" style="rounded=0;whiteSpace=wrap;html=1;fillColor=#b1ddf0;strokeColor=#000000;" parent="1" vertex="1">
          <mxGeometry x="-680" y="180" width="40" height="60" as="geometry" />
        </mxCell>
        <mxCell id="ugWdAH9gTy0CYIlYv7zM-3" value="&lt;font face=&quot;Verdana&quot; style=&quot;font-size: 16px;&quot;&gt;&lt;b&gt;2&lt;/b&gt;&lt;/font&gt;" style="rounded=0;whiteSpace=wrap;html=1;fillColor=#f8cecc;strokeColor=#000000;" parent="1" vertex="1">
          <mxGeometry x="-600" y="200" width="40" height="40" as="geometry" />
        </mxCell>
        <mxCell id="ugWdAH9gTy0CYIlYv7zM-4" value="&lt;font face=&quot;Verdana&quot; style=&quot;font-size: 16px;&quot;&gt;&lt;b&gt;1&lt;/b&gt;&lt;/font&gt;" style="rounded=0;whiteSpace=wrap;html=1;fillColor=#d5e8d4;strokeColor=#000000;" parent="1" vertex="1">
          <mxGeometry x="-480" y="220" width="40" height="20" as="geometry" />
        </mxCell>
        <mxCell id="ugWdAH9gTy0CYIlYv7zM-5" value="&lt;font face=&quot;Verdana&quot; style=&quot;font-size: 16px;&quot;&gt;&lt;b&gt;1&lt;/b&gt;&lt;/font&gt;" style="rounded=0;whiteSpace=wrap;html=1;fillColor=#e1d5e7;strokeColor=#0d0c0d;" parent="1" vertex="1">
          <mxGeometry x="-680" y="240" width="40" height="30" as="geometry" />
        </mxCell>
        <mxCell id="ugWdAH9gTy0CYIlYv7zM-6" value="&lt;font face=&quot;Verdana&quot; style=&quot;font-size: 16px;&quot;&gt;&lt;b&gt;2&lt;/b&gt;&lt;/font&gt;" style="rounded=0;whiteSpace=wrap;html=1;fillColor=#e1d5e7;strokeColor=#0d0c0d;" parent="1" vertex="1">
          <mxGeometry x="-640" y="240" width="40" height="30" as="geometry" />
        </mxCell>
        <mxCell id="DwyBziVhjBW1dfS6EaBD-1" value="&lt;font face=&quot;Verdana&quot; style=&quot;font-size: 16px;&quot;&gt;&lt;b&gt;3&lt;/b&gt;&lt;/font&gt;" style="rounded=0;whiteSpace=wrap;html=1;fillColor=#e1d5e7;strokeColor=#0d0c0d;" parent="1" vertex="1">
          <mxGeometry x="-600" y="240" width="40" height="30" as="geometry" />
        </mxCell>
        <mxCell id="DwyBziVhjBW1dfS6EaBD-2" value="&lt;font face=&quot;Verdana&quot; style=&quot;font-size: 16px;&quot;&gt;&lt;b&gt;4&lt;/b&gt;&lt;/font&gt;" style="rounded=0;whiteSpace=wrap;html=1;fillColor=#e1d5e7;strokeColor=#0d0c0d;" parent="1" vertex="1">
          <mxGeometry x="-560" y="240" width="40" height="30" as="geometry" />
        </mxCell>
        <mxCell id="DwyBziVhjBW1dfS6EaBD-3" value="&lt;font face=&quot;Verdana&quot; style=&quot;font-size: 16px;&quot;&gt;&lt;b&gt;5&lt;/b&gt;&lt;/font&gt;" style="rounded=0;whiteSpace=wrap;html=1;fillColor=#e1d5e7;strokeColor=#0d0c0d;" parent="1" vertex="1">
          <mxGeometry x="-520" y="240" width="40" height="30" as="geometry" />
        </mxCell>
        <mxCell id="DwyBziVhjBW1dfS6EaBD-5" value="&lt;font face=&quot;Verdana&quot; style=&quot;font-size: 16px;&quot;&gt;&lt;b&gt;4&lt;/b&gt;&lt;/font&gt;" style="rounded=0;whiteSpace=wrap;html=1;fillColor=#f8cecc;strokeColor=#000000;" parent="1" vertex="1">
          <mxGeometry x="-440" y="170" width="40" height="80" as="geometry" />
        </mxCell>
        <mxCell id="DwyBziVhjBW1dfS6EaBD-6" value="&lt;font face=&quot;Verdana&quot;&gt;&lt;span style=&quot;font-size: 16px;&quot;&gt;&lt;b&gt;5&lt;/b&gt;&lt;/span&gt;&lt;/font&gt;" style="rounded=0;whiteSpace=wrap;html=1;fillColor=#dae8fc;strokeColor=#000000;" parent="1" vertex="1">
          <mxGeometry x="-560" y="140" width="40" height="100" as="geometry" />
        </mxCell>
        <mxCell id="DwyBziVhjBW1dfS6EaBD-7" value="&lt;font face=&quot;Verdana&quot;&gt;&lt;span style=&quot;font-size: 16px;&quot;&gt;&lt;b&gt;9&lt;/b&gt;&lt;/span&gt;&lt;/font&gt;" style="rounded=0;whiteSpace=wrap;html=1;fillColor=#dae8fc;strokeColor=#000000;" parent="1" vertex="1">
          <mxGeometry x="-720" y="60" width="40" height="180" as="geometry" />
        </mxCell>
        <mxCell id="Awt-DgbT7jhiaurr5O_n-1" value="&lt;font face=&quot;Verdana&quot; style=&quot;font-size: 16px;&quot;&gt;&lt;b&gt;6&lt;/b&gt;&lt;/font&gt;" style="rounded=0;whiteSpace=wrap;html=1;fillColor=#e1d5e7;strokeColor=#0d0c0d;" vertex="1" parent="1">
          <mxGeometry x="-480" y="240" width="41" height="30" as="geometry" />
        </mxCell>
        <mxCell id="Awt-DgbT7jhiaurr5O_n-2" value="&lt;font face=&quot;Verdana&quot; style=&quot;font-size: 16px;&quot;&gt;&lt;b&gt;7&lt;/b&gt;&lt;/font&gt;" style="rounded=0;whiteSpace=wrap;html=1;fillColor=#e1d5e7;strokeColor=#0d0c0d;" vertex="1" parent="1">
          <mxGeometry x="-440" y="240" width="40" height="30" as="geometry" />
        </mxCell>
        <mxCell id="Awt-DgbT7jhiaurr5O_n-3" value="&lt;font face=&quot;Verdana&quot;&gt;&lt;span style=&quot;font-size: 16px;&quot;&gt;&lt;b&gt;7&lt;/b&gt;&lt;/span&gt;&lt;/font&gt;" style="rounded=0;whiteSpace=wrap;html=1;fillColor=#d5e8d4;strokeColor=#000000;" vertex="1" parent="1">
          <mxGeometry x="-640" y="100" width="40" height="140" as="geometry" />
        </mxCell>
        <mxCell id="Awt-DgbT7jhiaurr5O_n-4" value="&lt;font face=&quot;Verdana&quot;&gt;&lt;span style=&quot;font-size: 16px;&quot;&gt;&lt;b&gt;8&lt;/b&gt;&lt;/span&gt;&lt;/font&gt;" style="rounded=0;whiteSpace=wrap;html=1;fillColor=#b1ddf0;strokeColor=#000000;" vertex="1" parent="1">
          <mxGeometry x="-520" y="80" width="40" height="160" as="geometry" />
        </mxCell>
        <mxCell id="Awt-DgbT7jhiaurr5O_n-6" value="&lt;font style=&quot;font-size: 16px;&quot; face=&quot;Verdana&quot;&gt;gap = 4 的为一组&lt;/font&gt;" style="text;html=1;align=center;verticalAlign=middle;resizable=0;points=[];autosize=1;strokeColor=none;fillColor=none;" vertex="1" parent="1">
          <mxGeometry x="-660" y="300" width="160" height="30" as="geometry" />
        </mxCell>
        <mxCell id="Awt-DgbT7jhiaurr5O_n-7" value="&lt;font face=&quot;Verdana&quot; style=&quot;font-size: 16px;&quot;&gt;&lt;b&gt;0&lt;/b&gt;&lt;/font&gt;" style="rounded=0;whiteSpace=wrap;html=1;fillColor=#e1d5e7;strokeColor=#0d0c0d;" vertex="1" parent="1">
          <mxGeometry x="-340" y="238" width="40" height="30" as="geometry" />
        </mxCell>
        <mxCell id="Awt-DgbT7jhiaurr5O_n-8" value="&lt;font face=&quot;Verdana&quot; style=&quot;font-size: 16px;&quot;&gt;&lt;b&gt;3&lt;/b&gt;&lt;/font&gt;" style="rounded=0;whiteSpace=wrap;html=1;fillColor=#b1ddf0;strokeColor=#000000;" vertex="1" parent="1">
          <mxGeometry x="-300" y="178" width="40" height="60" as="geometry" />
        </mxCell>
        <mxCell id="Awt-DgbT7jhiaurr5O_n-9" value="&lt;font face=&quot;Verdana&quot; style=&quot;font-size: 16px;&quot;&gt;&lt;b&gt;2&lt;/b&gt;&lt;/font&gt;" style="rounded=0;whiteSpace=wrap;html=1;fillColor=#f8cecc;strokeColor=#000000;" vertex="1" parent="1">
          <mxGeometry x="-220" y="198" width="40" height="40" as="geometry" />
        </mxCell>
        <mxCell id="Awt-DgbT7jhiaurr5O_n-10" value="&lt;font face=&quot;Verdana&quot; style=&quot;font-size: 16px;&quot;&gt;&lt;b&gt;1&lt;/b&gt;&lt;/font&gt;" style="rounded=0;whiteSpace=wrap;html=1;fillColor=#d5e8d4;strokeColor=#000000;" vertex="1" parent="1">
          <mxGeometry x="-260" y="218" width="40" height="20" as="geometry" />
        </mxCell>
        <mxCell id="Awt-DgbT7jhiaurr5O_n-11" value="&lt;font face=&quot;Verdana&quot; style=&quot;font-size: 16px;&quot;&gt;&lt;b&gt;1&lt;/b&gt;&lt;/font&gt;" style="rounded=0;whiteSpace=wrap;html=1;fillColor=#e1d5e7;strokeColor=#0d0c0d;" vertex="1" parent="1">
          <mxGeometry x="-300" y="238" width="40" height="30" as="geometry" />
        </mxCell>
        <mxCell id="Awt-DgbT7jhiaurr5O_n-12" value="&lt;font face=&quot;Verdana&quot; style=&quot;font-size: 16px;&quot;&gt;&lt;b&gt;2&lt;/b&gt;&lt;/font&gt;" style="rounded=0;whiteSpace=wrap;html=1;fillColor=#e1d5e7;strokeColor=#0d0c0d;" vertex="1" parent="1">
          <mxGeometry x="-260" y="238" width="40" height="30" as="geometry" />
        </mxCell>
        <mxCell id="Awt-DgbT7jhiaurr5O_n-13" value="&lt;font face=&quot;Verdana&quot; style=&quot;font-size: 16px;&quot;&gt;&lt;b&gt;3&lt;/b&gt;&lt;/font&gt;" style="rounded=0;whiteSpace=wrap;html=1;fillColor=#e1d5e7;strokeColor=#0d0c0d;" vertex="1" parent="1">
          <mxGeometry x="-220" y="238" width="40" height="30" as="geometry" />
        </mxCell>
        <mxCell id="Awt-DgbT7jhiaurr5O_n-14" value="&lt;font face=&quot;Verdana&quot; style=&quot;font-size: 16px;&quot;&gt;&lt;b&gt;4&lt;/b&gt;&lt;/font&gt;" style="rounded=0;whiteSpace=wrap;html=1;fillColor=#e1d5e7;strokeColor=#0d0c0d;" vertex="1" parent="1">
          <mxGeometry x="-180" y="238" width="40" height="30" as="geometry" />
        </mxCell>
        <mxCell id="Awt-DgbT7jhiaurr5O_n-15" value="&lt;font face=&quot;Verdana&quot; style=&quot;font-size: 16px;&quot;&gt;&lt;b&gt;5&lt;/b&gt;&lt;/font&gt;" style="rounded=0;whiteSpace=wrap;html=1;fillColor=#e1d5e7;strokeColor=#0d0c0d;" vertex="1" parent="1">
          <mxGeometry x="-140" y="238" width="40" height="30" as="geometry" />
        </mxCell>
        <mxCell id="Awt-DgbT7jhiaurr5O_n-16" value="&lt;font face=&quot;Verdana&quot; style=&quot;font-size: 16px;&quot;&gt;&lt;b&gt;4&lt;/b&gt;&lt;/font&gt;" style="rounded=0;whiteSpace=wrap;html=1;fillColor=#f8cecc;strokeColor=#000000;" vertex="1" parent="1">
          <mxGeometry x="-60" y="168" width="40" height="80" as="geometry" />
        </mxCell>
        <mxCell id="Awt-DgbT7jhiaurr5O_n-17" value="&lt;font face=&quot;Verdana&quot;&gt;&lt;span style=&quot;font-size: 16px;&quot;&gt;&lt;b&gt;5&lt;/b&gt;&lt;/span&gt;&lt;/font&gt;" style="rounded=0;whiteSpace=wrap;html=1;fillColor=#dae8fc;strokeColor=#000000;" vertex="1" parent="1">
          <mxGeometry x="-340" y="138" width="40" height="100" as="geometry" />
        </mxCell>
        <mxCell id="Awt-DgbT7jhiaurr5O_n-18" value="&lt;font face=&quot;Verdana&quot;&gt;&lt;span style=&quot;font-size: 16px;&quot;&gt;&lt;b&gt;9&lt;/b&gt;&lt;/span&gt;&lt;/font&gt;" style="rounded=0;whiteSpace=wrap;html=1;fillColor=#dae8fc;strokeColor=#000000;" vertex="1" parent="1">
          <mxGeometry x="-180" y="58" width="40" height="180" as="geometry" />
        </mxCell>
        <mxCell id="Awt-DgbT7jhiaurr5O_n-19" value="&lt;font face=&quot;Verdana&quot; style=&quot;font-size: 16px;&quot;&gt;&lt;b&gt;6&lt;/b&gt;&lt;/font&gt;" style="rounded=0;whiteSpace=wrap;html=1;fillColor=#e1d5e7;strokeColor=#0d0c0d;" vertex="1" parent="1">
          <mxGeometry x="-100" y="238" width="41" height="30" as="geometry" />
        </mxCell>
        <mxCell id="Awt-DgbT7jhiaurr5O_n-20" value="&lt;font face=&quot;Verdana&quot; style=&quot;font-size: 16px;&quot;&gt;&lt;b&gt;7&lt;/b&gt;&lt;/font&gt;" style="rounded=0;whiteSpace=wrap;html=1;fillColor=#e1d5e7;strokeColor=#0d0c0d;" vertex="1" parent="1">
          <mxGeometry x="-60" y="238" width="40" height="30" as="geometry" />
        </mxCell>
        <mxCell id="Awt-DgbT7jhiaurr5O_n-21" value="&lt;font face=&quot;Verdana&quot;&gt;&lt;span style=&quot;font-size: 16px;&quot;&gt;&lt;b&gt;7&lt;/b&gt;&lt;/span&gt;&lt;/font&gt;" style="rounded=0;whiteSpace=wrap;html=1;fillColor=#d5e8d4;strokeColor=#000000;" vertex="1" parent="1">
          <mxGeometry x="-100" y="98" width="40" height="140" as="geometry" />
        </mxCell>
        <mxCell id="Awt-DgbT7jhiaurr5O_n-22" value="&lt;font face=&quot;Verdana&quot;&gt;&lt;span style=&quot;font-size: 16px;&quot;&gt;&lt;b&gt;8&lt;/b&gt;&lt;/span&gt;&lt;/font&gt;" style="rounded=0;whiteSpace=wrap;html=1;fillColor=#b1ddf0;strokeColor=#000000;" vertex="1" parent="1">
          <mxGeometry x="-140" y="78" width="40" height="160" as="geometry" />
        </mxCell>
        <mxCell id="Awt-DgbT7jhiaurr5O_n-27" value="&lt;font face=&quot;Verdana&quot; style=&quot;font-size: 16px;&quot;&gt;&lt;b&gt;0&lt;/b&gt;&lt;/font&gt;" style="rounded=0;whiteSpace=wrap;html=1;fillColor=#e1d5e7;strokeColor=#110d11;" vertex="1" parent="1">
          <mxGeometry x="-720" y="550" width="40" height="30" as="geometry" />
        </mxCell>
        <mxCell id="Awt-DgbT7jhiaurr5O_n-28" value="&lt;font face=&quot;Verdana&quot; style=&quot;font-size: 16px;&quot;&gt;&lt;b&gt;3&lt;/b&gt;&lt;/font&gt;" style="rounded=0;whiteSpace=wrap;html=1;fillColor=#fad9d5;strokeColor=#110d11;" vertex="1" parent="1">
          <mxGeometry x="-680" y="490" width="40" height="60" as="geometry" />
        </mxCell>
        <mxCell id="Awt-DgbT7jhiaurr5O_n-29" value="&lt;font face=&quot;Verdana&quot; style=&quot;font-size: 16px;&quot;&gt;&lt;b&gt;2&lt;/b&gt;&lt;/font&gt;" style="rounded=0;whiteSpace=wrap;html=1;fillColor=#fad9d5;strokeColor=#110d11;" vertex="1" parent="1">
          <mxGeometry x="-600" y="510" width="40" height="40" as="geometry" />
        </mxCell>
        <mxCell id="Awt-DgbT7jhiaurr5O_n-30" value="&lt;font face=&quot;Verdana&quot; style=&quot;font-size: 16px;&quot;&gt;&lt;b&gt;1&lt;/b&gt;&lt;/font&gt;" style="rounded=0;whiteSpace=wrap;html=1;fillColor=#fad7ac;strokeColor=#110d11;" vertex="1" parent="1">
          <mxGeometry x="-480" y="530" width="40" height="20" as="geometry" />
        </mxCell>
        <mxCell id="Awt-DgbT7jhiaurr5O_n-31" value="&lt;font face=&quot;Verdana&quot; style=&quot;font-size: 16px;&quot;&gt;&lt;b&gt;1&lt;/b&gt;&lt;/font&gt;" style="rounded=0;whiteSpace=wrap;html=1;fillColor=#e1d5e7;strokeColor=#110d11;" vertex="1" parent="1">
          <mxGeometry x="-680" y="550" width="40" height="30" as="geometry" />
        </mxCell>
        <mxCell id="Awt-DgbT7jhiaurr5O_n-32" value="&lt;font face=&quot;Verdana&quot; style=&quot;font-size: 16px;&quot;&gt;&lt;b&gt;2&lt;/b&gt;&lt;/font&gt;" style="rounded=0;whiteSpace=wrap;html=1;fillColor=#e1d5e7;strokeColor=#110d11;" vertex="1" parent="1">
          <mxGeometry x="-640" y="550" width="40" height="30" as="geometry" />
        </mxCell>
        <mxCell id="Awt-DgbT7jhiaurr5O_n-33" value="&lt;font face=&quot;Verdana&quot; style=&quot;font-size: 16px;&quot;&gt;&lt;b&gt;3&lt;/b&gt;&lt;/font&gt;" style="rounded=0;whiteSpace=wrap;html=1;fillColor=#e1d5e7;strokeColor=#110d11;" vertex="1" parent="1">
          <mxGeometry x="-600" y="550" width="40" height="30" as="geometry" />
        </mxCell>
        <mxCell id="Awt-DgbT7jhiaurr5O_n-34" value="&lt;font face=&quot;Verdana&quot; style=&quot;font-size: 16px;&quot;&gt;&lt;b&gt;4&lt;/b&gt;&lt;/font&gt;" style="rounded=0;whiteSpace=wrap;html=1;fillColor=#e1d5e7;strokeColor=#110d11;" vertex="1" parent="1">
          <mxGeometry x="-560" y="550" width="40" height="30" as="geometry" />
        </mxCell>
        <mxCell id="Awt-DgbT7jhiaurr5O_n-35" value="&lt;font face=&quot;Verdana&quot; style=&quot;font-size: 16px;&quot;&gt;&lt;b&gt;5&lt;/b&gt;&lt;/font&gt;" style="rounded=0;whiteSpace=wrap;html=1;fillColor=#e1d5e7;strokeColor=#110d11;" vertex="1" parent="1">
          <mxGeometry x="-520" y="550" width="40" height="30" as="geometry" />
        </mxCell>
        <mxCell id="Awt-DgbT7jhiaurr5O_n-36" value="&lt;font face=&quot;Verdana&quot; style=&quot;font-size: 16px;&quot;&gt;&lt;b&gt;4&lt;/b&gt;&lt;/font&gt;" style="rounded=0;whiteSpace=wrap;html=1;fillColor=#fad9d5;strokeColor=#110d11;" vertex="1" parent="1">
          <mxGeometry x="-440" y="480" width="40" height="80" as="geometry" />
        </mxCell>
        <mxCell id="Awt-DgbT7jhiaurr5O_n-37" value="&lt;font face=&quot;Verdana&quot;&gt;&lt;span style=&quot;font-size: 16px;&quot;&gt;&lt;b&gt;5&lt;/b&gt;&lt;/span&gt;&lt;/font&gt;" style="rounded=0;whiteSpace=wrap;html=1;fillColor=#fad7ac;strokeColor=#110d11;" vertex="1" parent="1">
          <mxGeometry x="-560" y="450" width="40" height="100" as="geometry" />
        </mxCell>
        <mxCell id="Awt-DgbT7jhiaurr5O_n-38" value="&lt;font face=&quot;Verdana&quot;&gt;&lt;span style=&quot;font-size: 16px;&quot;&gt;&lt;b&gt;9&lt;/b&gt;&lt;/span&gt;&lt;/font&gt;" style="rounded=0;whiteSpace=wrap;html=1;fillColor=#fad7ac;strokeColor=#110d11;" vertex="1" parent="1">
          <mxGeometry x="-720" y="370" width="40" height="180" as="geometry" />
        </mxCell>
        <mxCell id="Awt-DgbT7jhiaurr5O_n-39" value="&lt;font face=&quot;Verdana&quot; style=&quot;font-size: 16px;&quot;&gt;&lt;b&gt;6&lt;/b&gt;&lt;/font&gt;" style="rounded=0;whiteSpace=wrap;html=1;fillColor=#e1d5e7;strokeColor=#110d11;" vertex="1" parent="1">
          <mxGeometry x="-480" y="550" width="41" height="30" as="geometry" />
        </mxCell>
        <mxCell id="Awt-DgbT7jhiaurr5O_n-40" value="&lt;font face=&quot;Verdana&quot; style=&quot;font-size: 16px;&quot;&gt;&lt;b&gt;7&lt;/b&gt;&lt;/font&gt;" style="rounded=0;whiteSpace=wrap;html=1;fillColor=#e1d5e7;strokeColor=#110d11;" vertex="1" parent="1">
          <mxGeometry x="-440" y="550" width="40" height="30" as="geometry" />
        </mxCell>
        <mxCell id="Awt-DgbT7jhiaurr5O_n-41" value="&lt;font face=&quot;Verdana&quot;&gt;&lt;span style=&quot;font-size: 16px;&quot;&gt;&lt;b&gt;7&lt;/b&gt;&lt;/span&gt;&lt;/font&gt;" style="rounded=0;whiteSpace=wrap;html=1;fillColor=#fad7ac;strokeColor=#110d11;" vertex="1" parent="1">
          <mxGeometry x="-640" y="410" width="40" height="140" as="geometry" />
        </mxCell>
        <mxCell id="Awt-DgbT7jhiaurr5O_n-42" value="&lt;font face=&quot;Verdana&quot;&gt;&lt;span style=&quot;font-size: 16px;&quot;&gt;&lt;b&gt;8&lt;/b&gt;&lt;/span&gt;&lt;/font&gt;" style="rounded=0;whiteSpace=wrap;html=1;fillColor=#fad9d5;strokeColor=#110d11;" vertex="1" parent="1">
          <mxGeometry x="-520" y="390" width="40" height="160" as="geometry" />
        </mxCell>
        <mxCell id="Awt-DgbT7jhiaurr5O_n-43" value="&lt;font style=&quot;font-size: 16px;&quot; face=&quot;Verdana&quot;&gt;gap = 2&lt;/font&gt;" style="text;html=1;align=center;verticalAlign=middle;resizable=0;points=[];autosize=1;strokeColor=none;fillColor=none;" vertex="1" parent="1">
          <mxGeometry x="-625" y="610" width="90" height="30" as="geometry" />
        </mxCell>
        <mxCell id="Awt-DgbT7jhiaurr5O_n-44" value="&lt;font face=&quot;Verdana&quot; style=&quot;font-size: 16px;&quot;&gt;&lt;b&gt;0&lt;/b&gt;&lt;/font&gt;" style="rounded=0;whiteSpace=wrap;html=1;fillColor=#e1d5e7;strokeColor=#110d11;" vertex="1" parent="1">
          <mxGeometry x="-340" y="550" width="40" height="30" as="geometry" />
        </mxCell>
        <mxCell id="Awt-DgbT7jhiaurr5O_n-45" value="&lt;font face=&quot;Verdana&quot; style=&quot;font-size: 16px;&quot;&gt;&lt;b&gt;3&lt;/b&gt;&lt;/font&gt;" style="rounded=0;whiteSpace=wrap;html=1;fillColor=#fad9d5;strokeColor=#110d11;" vertex="1" parent="1">
          <mxGeometry x="-220" y="490" width="40" height="60" as="geometry" />
        </mxCell>
        <mxCell id="Awt-DgbT7jhiaurr5O_n-46" value="&lt;font face=&quot;Verdana&quot; style=&quot;font-size: 16px;&quot;&gt;&lt;b&gt;2&lt;/b&gt;&lt;/font&gt;" style="rounded=0;whiteSpace=wrap;html=1;fillColor=#fad9d5;strokeColor=#110d11;" vertex="1" parent="1">
          <mxGeometry x="-300" y="510" width="40" height="40" as="geometry" />
        </mxCell>
        <mxCell id="Awt-DgbT7jhiaurr5O_n-47" value="&lt;font face=&quot;Verdana&quot; style=&quot;font-size: 16px;&quot;&gt;&lt;b&gt;1&lt;/b&gt;&lt;/font&gt;" style="rounded=0;whiteSpace=wrap;html=1;fillColor=#fad7ac;strokeColor=#110d11;" vertex="1" parent="1">
          <mxGeometry x="-340" y="530" width="40" height="20" as="geometry" />
        </mxCell>
        <mxCell id="Awt-DgbT7jhiaurr5O_n-48" value="&lt;font face=&quot;Verdana&quot; style=&quot;font-size: 16px;&quot;&gt;&lt;b&gt;1&lt;/b&gt;&lt;/font&gt;" style="rounded=0;whiteSpace=wrap;html=1;fillColor=#e1d5e7;strokeColor=#110d11;" vertex="1" parent="1">
          <mxGeometry x="-300" y="550" width="40" height="30" as="geometry" />
        </mxCell>
        <mxCell id="Awt-DgbT7jhiaurr5O_n-49" value="&lt;font face=&quot;Verdana&quot; style=&quot;font-size: 16px;&quot;&gt;&lt;b&gt;2&lt;/b&gt;&lt;/font&gt;" style="rounded=0;whiteSpace=wrap;html=1;fillColor=#e1d5e7;strokeColor=#110d11;" vertex="1" parent="1">
          <mxGeometry x="-260" y="550" width="40" height="30" as="geometry" />
        </mxCell>
        <mxCell id="Awt-DgbT7jhiaurr5O_n-50" value="&lt;font face=&quot;Verdana&quot; style=&quot;font-size: 16px;&quot;&gt;&lt;b&gt;3&lt;/b&gt;&lt;/font&gt;" style="rounded=0;whiteSpace=wrap;html=1;fillColor=#e1d5e7;strokeColor=#110d11;" vertex="1" parent="1">
          <mxGeometry x="-220" y="550" width="40" height="30" as="geometry" />
        </mxCell>
        <mxCell id="Awt-DgbT7jhiaurr5O_n-51" value="&lt;font face=&quot;Verdana&quot; style=&quot;font-size: 16px;&quot;&gt;&lt;b&gt;4&lt;/b&gt;&lt;/font&gt;" style="rounded=0;whiteSpace=wrap;html=1;fillColor=#e1d5e7;strokeColor=#110d11;" vertex="1" parent="1">
          <mxGeometry x="-180" y="550" width="40" height="30" as="geometry" />
        </mxCell>
        <mxCell id="Awt-DgbT7jhiaurr5O_n-52" value="&lt;font face=&quot;Verdana&quot; style=&quot;font-size: 16px;&quot;&gt;&lt;b&gt;5&lt;/b&gt;&lt;/font&gt;" style="rounded=0;whiteSpace=wrap;html=1;fillColor=#e1d5e7;strokeColor=#110d11;" vertex="1" parent="1">
          <mxGeometry x="-140" y="550" width="40" height="30" as="geometry" />
        </mxCell>
        <mxCell id="Awt-DgbT7jhiaurr5O_n-53" value="&lt;font face=&quot;Verdana&quot; style=&quot;font-size: 16px;&quot;&gt;&lt;b&gt;4&lt;/b&gt;&lt;/font&gt;" style="rounded=0;whiteSpace=wrap;html=1;fillColor=#fad9d5;strokeColor=#110d11;" vertex="1" parent="1">
          <mxGeometry x="-140" y="470" width="40" height="80" as="geometry" />
        </mxCell>
        <mxCell id="Awt-DgbT7jhiaurr5O_n-54" value="&lt;font face=&quot;Verdana&quot;&gt;&lt;span style=&quot;font-size: 16px;&quot;&gt;&lt;b&gt;5&lt;/b&gt;&lt;/span&gt;&lt;/font&gt;" style="rounded=0;whiteSpace=wrap;html=1;fillColor=#fad7ac;strokeColor=#110d11;" vertex="1" parent="1">
          <mxGeometry x="-260" y="450" width="40" height="100" as="geometry" />
        </mxCell>
        <mxCell id="Awt-DgbT7jhiaurr5O_n-55" value="&lt;font face=&quot;Verdana&quot;&gt;&lt;span style=&quot;font-size: 16px;&quot;&gt;&lt;b&gt;9&lt;/b&gt;&lt;/span&gt;&lt;/font&gt;" style="rounded=0;whiteSpace=wrap;html=1;fillColor=#fad7ac;strokeColor=#110d11;" vertex="1" parent="1">
          <mxGeometry x="-100" y="370" width="40" height="180" as="geometry" />
        </mxCell>
        <mxCell id="Awt-DgbT7jhiaurr5O_n-56" value="&lt;font face=&quot;Verdana&quot; style=&quot;font-size: 16px;&quot;&gt;&lt;b&gt;6&lt;/b&gt;&lt;/font&gt;" style="rounded=0;whiteSpace=wrap;html=1;fillColor=#e1d5e7;strokeColor=#110d11;" vertex="1" parent="1">
          <mxGeometry x="-100" y="550" width="41" height="30" as="geometry" />
        </mxCell>
        <mxCell id="Awt-DgbT7jhiaurr5O_n-57" value="&lt;font face=&quot;Verdana&quot; style=&quot;font-size: 16px;&quot;&gt;&lt;b&gt;7&lt;/b&gt;&lt;/font&gt;" style="rounded=0;whiteSpace=wrap;html=1;fillColor=#e1d5e7;strokeColor=#110d11;" vertex="1" parent="1">
          <mxGeometry x="-60" y="550" width="40" height="30" as="geometry" />
        </mxCell>
        <mxCell id="Awt-DgbT7jhiaurr5O_n-58" value="&lt;font face=&quot;Verdana&quot;&gt;&lt;span style=&quot;font-size: 16px;&quot;&gt;&lt;b&gt;7&lt;/b&gt;&lt;/span&gt;&lt;/font&gt;" style="rounded=0;whiteSpace=wrap;html=1;fillColor=#fad7ac;strokeColor=#110d11;" vertex="1" parent="1">
          <mxGeometry x="-180" y="410" width="40" height="140" as="geometry" />
        </mxCell>
        <mxCell id="Awt-DgbT7jhiaurr5O_n-59" value="&lt;font face=&quot;Verdana&quot;&gt;&lt;span style=&quot;font-size: 16px;&quot;&gt;&lt;b&gt;8&lt;/b&gt;&lt;/span&gt;&lt;/font&gt;" style="rounded=0;whiteSpace=wrap;html=1;fillColor=#fad9d5;strokeColor=#110d11;" vertex="1" parent="1">
          <mxGeometry x="-60" y="390" width="40" height="160" as="geometry" />
        </mxCell>
      </root>
    </mxGraphModel>
  </diagram>
</mxfile>
